<?xml version="1.0" standalone="no"?>
<!DOCTYPE svg PUBLIC "-//W3C//DTD SVG 20010904//EN"
 "http://www.w3.org/TR/2001/REC-SVG-20010904/DTD/svg10.dtd">
<svg version="1.0" xmlns="http://www.w3.org/2000/svg"
 width="668.000000pt" height="994.000000pt" viewBox="0 0 668.000000 994.000000"
 preserveAspectRatio="xMidYMid meet">
<metadata>
Created by potrace 1.16, written by Peter Selinger 2001-2019
</metadata>
<g transform="translate(0.000000,994.000000) scale(0.100000,-0.100000)"
fill="#000000" stroke="none">
<path d="M1345 9364 c-31 -31 -154 -222 -204 -316 -124 -233 -146 -390 -146
-1043 1 -397 13 -539 56 -673 56 -171 228 -330 501 -461 92 -44 118 -60 118
-76 0 -11 -9 -78 -20 -150 -54 -349 -63 -442 -64 -615 -1 -140 4 -201 22 -304
13 -71 22 -130 20 -131 -2 -1 -29 -10 -61 -20 -128 -40 -163 -91 -147 -220 33
-282 58 -375 148 -555 104 -207 308 -518 488 -741 90 -111 265 -289 285 -289
5 0 3 -10 -5 -23 -7 -12 -19 -44 -25 -72 -25 -105 -32 -125 -45 -125 -7 0 -86
-110 -176 -245 -89 -135 -165 -245 -169 -245 -3 1 -64 101 -135 223 -113 195
-164 267 -185 267 -3 0 -21 -9 -39 -20 -18 -11 -35 -20 -37 -20 -3 0 4 18 15
40 30 59 53 158 47 206 -13 120 -137 274 -221 274 -29 0 -28 -8 -55 388 -10
144 -22 267 -27 271 -5 5 -66 12 -136 16 -125 6 -127 6 -139 -16 -9 -17 -10
-86 -5 -279 l6 -255 -212 218 c-117 120 -219 217 -227 217 -22 0 -180 -172
-181 -196 0 -14 62 -93 173 -220 l173 -198 -68 -68 c-73 -74 -128 -158 -128
-196 0 -31 15 -60 55 -102 18 -19 36 -46 40 -60 10 -31 79 -123 145 -190 52
-53 145 -104 211 -115 21 -4 39 -11 39 -16 0 -5 -22 -21 -50 -37 -56 -30 -67
-47 -47 -71 8 -9 17 -23 20 -33 5 -15 111 -152 685 -887 l229 -294 -13 -61
c-39 -190 -29 -255 51 -333 l54 -53 2 -247 c2 -243 1 -247 -20 -264 -22 -18
-23 -17 -77 26 -75 62 -127 86 -195 92 -74 7 -146 -25 -215 -95 -119 -122
-156 -235 -158 -482 -1 -152 1 -168 21 -206 51 -96 107 -107 543 -108 190 -1
485 3 657 7 l312 8 43 -24 c89 -52 282 -64 993 -63 l530 2 47 23 c27 12 57 35
68 51 50 70 69 263 51 515 -7 88 -16 164 -21 169 -6 6 -10 142 -10 333 0 303
1 323 18 323 31 0 154 -65 237 -125 251 -182 267 -192 310 -181 33 8 102 79
207 211 44 55 87 105 95 112 36 28 10 47 -246 176 -222 112 -251 130 -235 141
16 12 17 34 10 317 -12 568 -37 969 -66 1070 -6 18 -10 35 -10 36 0 2 11 3 24
3 25 0 59 33 219 217 48 56 87 110 87 121 0 22 -349 456 -380 472 -12 7 -61
-1 -161 -24 -79 -19 -146 -32 -148 -30 -9 8 75 86 134 123 51 33 322 142 379
153 22 4 20 8 106 -174 68 -145 75 -154 117 -149 7 1 116 58 244 126 128 69
234 123 236 122 2 -2 26 -107 54 -233 59 -273 56 -261 76 -268 41 -16 42 -10
129 711 25 211 44 389 40 398 -3 8 -15 15 -26 15 -12 0 -138 -94 -301 -225
-154 -124 -284 -225 -289 -225 -6 0 -10 7 -10 16 0 8 -16 81 -36 162 -36 151
-56 188 -91 175 -9 -4 -95 -51 -190 -105 -96 -55 -176 -98 -178 -96 -4 3 236
292 279 336 14 14 48 29 87 38 119 27 199 65 246 116 57 61 78 202 70 467 -3
110 -12 223 -20 258 -11 49 -12 64 -2 75 13 13 73 191 119 353 111 390 136
843 65 1170 -84 389 -333 806 -574 960 -116 75 -362 164 -565 206 -105 22
-163 40 -210 65 -79 42 -199 143 -433 366 -107 103 -182 168 -191 165 -7 -3
-94 -120 -192 -261 -99 -140 -182 -255 -185 -255 -3 -1 -142 144 -309 322
-166 177 -312 326 -323 332 -23 11 -69 -36 -505 -502 -217 -232 -217 -233
-234 -210 -10 12 -133 179 -275 372 -142 192 -275 371 -296 397 -40 51 -64 59
-92 32z m510 -2609 c39 -8 114 -18 168 -22 53 -3 97 -9 97 -13 0 -4 -10 -18
-21 -31 -36 -40 -79 -112 -79 -131 0 -22 35 -41 63 -33 12 3 58 23 102 43 l80
37 157 0 c143 0 159 2 185 21 15 11 32 35 38 52 9 31 11 32 61 32 78 0 412
-29 467 -40 26 -5 60 -18 74 -27 23 -15 53 -18 178 -19 319 -3 689 -82 896
-190 201 -106 316 -323 425 -807 54 -239 59 -252 99 -252 38 0 65 39 100 145
26 78 28 80 133 176 167 151 284 234 332 234 24 0 54 -74 76 -185 13 -67 17
-141 18 -285 0 -316 -23 -378 -160 -430 -62 -23 -209 -53 -329 -67 -68 -8 -70
-9 -73 -38 -4 -35 -167 -374 -211 -441 -17 -25 -31 -49 -31 -53 0 -15 -132
-206 -177 -256 -106 -117 -150 -158 -237 -215 -257 -172 -620 -298 -980 -341
-113 -14 -392 -7 -476 11 -248 53 -437 156 -600 327 -211 221 -547 722 -651
973 -42 99 -89 330 -92 445 l-2 90 55 28 c30 15 73 32 96 37 29 7 44 17 52 36
7 14 10 29 7 33 -2 5 -11 62 -19 127 -8 65 -20 144 -26 174 -18 89 3 329 66
763 l18 119 25 -6 c14 -3 58 -12 96 -21z m-632 -2124 c7 -7 18 -126 40 -452
l12 -177 -41 -47 c-23 -26 -55 -72 -70 -103 -26 -50 -29 -68 -29 -148 0 -129
30 -175 100 -151 61 21 252 192 243 219 -2 6 -11 16 -20 21 -12 8 -32 -4 -89
-54 -124 -108 -149 -125 -160 -108 -5 8 -8 48 -7 89 3 66 8 83 38 134 39 64
110 120 140 111 28 -9 86 -78 116 -137 23 -45 26 -60 21 -113 -3 -33 -20 -93
-37 -134 -16 -41 -28 -82 -25 -90 3 -12 -38 -41 -162 -112 l-167 -96 -82 18
c-113 24 -160 48 -224 113 l-54 56 45 0 c48 0 85 19 161 84 20 17 51 40 69 51
48 29 75 99 63 162 -8 40 -16 53 -58 84 -27 20 -92 61 -145 92 -92 52 -103 62
-268 248 -95 107 -172 196 -172 199 0 3 25 32 55 65 l55 59 222 -228 c188
-194 226 -228 247 -225 l25 4 3 290 2 290 73 -3 c39 -2 75 -7 80 -11z m-252
-807 c71 -44 85 -78 56 -134 -16 -32 -50 -39 -120 -23 -100 23 -182 80 -205
143 -13 34 -7 45 44 84 l45 34 72 -40 c40 -23 88 -51 108 -64z m-321 -63 c0
-14 77 -89 119 -116 22 -14 61 -30 86 -37 25 -7 44 -17 42 -23 -2 -5 -22 -20
-44 -32 l-40 -23 -49 26 c-27 14 -73 49 -101 77 -54 52 -64 79 -43 118 11 19
30 26 30 10z m2406 -221 l71 0 -13 -72 c-13 -75 -49 -300 -85 -538 -11 -74
-31 -196 -44 -270 -13 -74 -33 -200 -45 -280 -12 -80 -32 -208 -45 -285 -65
-382 -96 -589 -92 -606 5 -19 -3 -22 -99 -32 l-41 -5 8 37 c5 20 9 59 9 87 0
57 7 64 66 64 24 0 37 6 48 23 18 30 58 227 54 269 l-3 33 -63 3 -62 3 6 57
c4 31 12 91 18 132 l11 75 62 3 c49 2 65 7 73 21 5 11 19 80 30 154 27 170 25
175 -63 179 l-62 3 1 40 c1 22 5 77 9 121 l7 82 69 4 c96 5 99 10 106 149 7
130 8 127 -77 154 -30 10 -58 20 -62 24 -4 3 33 54 82 113 82 99 110 137 110
153 0 3 -24 31 -52 62 -45 48 -49 55 -28 50 14 -4 57 -7 96 -7z m-111 -90 c21
-23 32 -4 -109 -175 -55 -66 -103 -121 -108 -123 -4 -2 -8 5 -8 15 0 22 -93
148 -116 157 -16 6 -86 -25 -116 -52 -27 -23 -21 -50 30 -131 64 -101 68 -103
131 -58 28 20 51 34 51 31 0 -11 -122 -149 -132 -149 -11 0 -181 305 -174 312
11 11 496 191 517 192 9 1 24 -8 34 -19z m-79 -360 l59 -20 -3 -79 -3 -78 -74
-5 c-42 -3 -82 -11 -92 -19 -15 -12 -16 -12 -10 3 3 10 9 52 13 95 8 89 18
123 37 123 7 0 40 -9 73 -20z m-131 -403 c-9 -143 -6 -148 81 -155 31 -3 54
-9 53 -16 0 -6 -8 -56 -17 -111 l-18 -100 -51 3 c-77 5 -86 -8 -107 -163 -9
-71 -19 -132 -23 -135 -7 -7 2 104 20 250 9 63 18 151 22 195 3 44 13 125 21
180 7 55 14 117 14 138 0 20 3 37 6 37 3 0 2 -55 -1 -123z m-50 -779 c17 -5
45 -7 63 -4 38 6 38 6 14 -114 l-18 -85 -44 -3 c-25 -2 -52 -10 -62 -18 -16
-15 -27 -77 -30 -182 -2 -40 -6 -51 -16 -47 -8 3 -19 5 -25 5 -6 0 -4 6 5 13
11 9 22 70 42 242 14 127 27 244 28 260 1 22 3 18 7 -14 5 -39 10 -46 36 -53z
m2366 -215 c148 -75 268 -141 266 -146 -10 -31 -36 -28 -142 18 -113 49 -140
51 -140 9 0 -14 25 -30 102 -64 56 -25 104 -47 106 -50 3 -3 -14 -27 -37 -54
l-43 -48 -104 76 c-109 81 -144 92 -144 47 0 -20 21 -40 104 -99 95 -69 102
-76 85 -89 -28 -20 -46 -16 -102 25 -28 20 -87 62 -129 94 -239 173 -343 202
-480 132 -32 -17 -86 -45 -121 -63 -38 -19 -70 -30 -82 -26 -29 9 -80 96 -80
138 0 45 -1 45 175 96 77 23 212 63 300 90 88 27 168 49 178 50 10 1 140 -60
288 -136z m-3315 -707 c120 -56 174 -136 174 -259 0 -189 31 -201 511 -199
l317 1 4 -87 c3 -48 12 -107 21 -132 9 -24 14 -47 11 -50 -3 -3 -41 -7 -85 -9
-80 -3 -80 -3 -75 20 3 13 7 62 8 109 3 70 0 85 -12 85 -17 0 -26 -43 -31
-145 l-4 -65 -50 -6 c-96 -10 -95 -11 -88 103 6 95 5 100 -13 96 -16 -3 -20
-17 -28 -106 l-9 -102 -89 0 -88 0 0 110 c0 92 -3 112 -16 117 -27 10 -34 -18
-32 -123 l3 -102 -50 -6 c-78 -9 -388 -7 -520 4 -144 12 -199 30 -221 71 -33
65 -28 272 11 425 18 68 89 180 140 219 79 60 133 68 211 31z m1634 -61 c98
-36 151 -67 194 -115 46 -51 105 -170 145 -290 18 -52 39 -101 48 -107 13 -10
105 -13 381 -13 l365 0 -7 -52 c-16 -123 -41 -158 -127 -177 -77 -18 -76 -19
-83 60 -6 58 -10 70 -24 67 -14 -3 -17 -15 -15 -72 l3 -69 -38 7 c-20 3 -62 6
-93 6 l-57 0 -7 76 c-6 63 -10 75 -23 72 -14 -3 -16 -15 -14 -76 l4 -72 -129
0 -128 0 3 85 c3 71 1 86 -13 91 -9 4 -17 5 -19 3 -2 -2 -6 -44 -9 -93 l-5
-88 -92 -2 -92 -1 7 88 c7 83 6 89 -11 85 -22 -4 -31 -38 -33 -117 l-1 -54
-212 6 c-222 7 -334 20 -380 43 -65 34 -116 186 -103 306 22 202 110 364 228
419 63 30 233 22 337 -16z m390 -146 c0 -8 4 -8 13 -1 20 17 698 6 709 -10 4
-7 8 -44 9 -83 1 -38 2 -101 3 -140 l1 -70 -348 0 -349 0 -14 40 c-7 22 -14
46 -14 52 0 7 -11 36 -24 65 -41 92 -46 109 -40 120 4 6 3 8 -2 5 -6 -3 -15 3
-22 14 -11 18 -9 19 33 19 27 0 45 -5 45 -11z"/>
<path d="M3671 6499 c-197 -43 -338 -214 -397 -476 -22 -100 -14 -278 16 -373
53 -166 126 -276 245 -374 148 -121 246 -145 372 -93 69 28 180 103 217 147
89 106 126 315 91 510 -27 146 -97 360 -144 440 -46 77 -156 184 -216 210 -63
27 -94 29 -184 9z m167 -78 c103 -32 194 -126 218 -224 l6 -28 -36 22 c-47 28
-128 23 -174 -9 -69 -50 -101 -238 -67 -401 30 -150 78 -225 170 -267 61 -29
110 -30 153 -4 44 27 41 9 -9 -69 -135 -206 -318 -273 -461 -168 -24 17 -60
43 -80 57 -83 56 -184 206 -221 325 -26 84 -28 132 -12 231 31 191 85 345 146
417 103 119 231 161 367 118z"/>
<path d="M2253 6431 c-131 -34 -269 -205 -335 -414 -31 -98 -33 -341 -4 -427
54 -160 141 -277 223 -299 80 -22 233 37 304 118 21 24 39 42 39 40 0 -2 -10
-29 -21 -59 -77 -201 -132 -366 -144 -438 -5 -33 -2 -52 15 -88 26 -53 105
-138 167 -179 35 -23 46 -25 58 -15 28 23 16 46 -55 103 -38 32 -81 78 -95
102 l-26 44 17 68 c26 104 87 276 181 511 70 176 83 215 72 228 -24 29 -53 12
-73 -44 -22 -62 -33 -63 -14 -1 9 31 13 113 13 269 0 205 -2 230 -22 282 -26
71 -85 161 -120 183 -30 20 -131 29 -180 16z m167 -73 c64 -39 116 -123 126
-205 8 -68 0 -77 -35 -42 -24 23 -38 29 -74 29 -39 0 -49 -5 -75 -34 -37 -42
-66 -118 -86 -226 -31 -163 -14 -262 55 -325 42 -38 71 -42 122 -20 66 28 -83
-130 -158 -167 -114 -58 -185 -40 -262 67 -61 86 -91 159 -109 272 -23 140 -5
227 82 403 101 202 185 277 314 279 35 1 59 -7 100 -31z"/>
<path d="M5203 5660 c-208 -84 -261 -173 -219 -365 17 -80 38 -125 71 -155 38
-35 115 -33 215 6 70 28 75 32 75 59 0 26 -4 30 -25 29 -14 -1 -56 -14 -93
-28 -38 -15 -67 -23 -65 -19 2 5 17 35 34 68 41 80 47 108 31 148 -14 31 -100
117 -118 117 -27 0 0 21 63 51 127 60 133 64 136 81 7 35 -30 38 -105 8z m-88
-232 c44 -39 47 -44 42 -80 -3 -21 -20 -61 -38 -90 l-33 -51 -18 43 c-19 45
-35 177 -25 204 9 24 20 20 72 -26z"/>
<path d="M3926 4910 c-198 -46 -256 -77 -511 -270 -219 -165 -315 -210 -450
-210 -78 0 -139 15 -313 78 -79 29 -156 52 -171 52 -63 0 -112 -73 -93 -138
14 -47 109 -193 190 -294 156 -193 286 -268 443 -255 90 8 159 29 329 102 80
35 213 86 295 115 175 60 242 94 313 156 104 91 142 218 141 469 -1 202 -3
209 -54 212 -22 1 -75 -7 -119 -17z m109 -79 c6 -26 -3 -42 -64 -123 -38 -51
-98 -124 -134 -163 l-64 -70 -21 58 c-12 32 -22 61 -22 66 0 16 -38 41 -54 35
-23 -9 -20 -36 15 -120 17 -41 30 -76 28 -78 -51 -40 -188 -116 -209 -116 -5
0 -17 18 -26 40 -12 30 -22 40 -39 40 -30 0 -35 -16 -19 -64 8 -21 14 -42 14
-46 0 -7 -119 -43 -200 -59 -72 -15 -249 -22 -325 -14 l-69 8 -16 45 c-13 37
-20 45 -40 45 -23 0 -25 -3 -23 -44 l2 -44 -52 7 c-29 3 -73 6 -99 6 l-47 0
-60 92 c-62 95 -74 135 -46 158 12 10 47 1 192 -51 l178 -64 125 0 c195 0 225
14 521 236 193 144 271 187 404 223 124 34 142 33 150 -3z m1 -223 c-27 -273
-105 -358 -426 -463 -63 -21 -171 -63 -240 -93 -162 -70 -244 -99 -316 -111
-65 -10 -160 1 -204 24 -45 23 -132 99 -184 160 l-50 57 40 -5 c21 -4 62 -9
91 -12 42 -6 52 -11 55 -27 7 -45 55 -48 62 -4 2 15 23 17 177 20 148 3 188 8
269 29 52 14 108 31 124 37 25 9 31 8 43 -10 27 -38 69 -19 57 27 -4 15 4 24
38 39 23 10 69 36 101 57 32 20 61 37 65 37 4 0 13 -9 20 -20 27 -43 69 -13
50 37 -11 29 -9 32 63 105 41 41 92 100 114 131 22 31 44 57 49 57 5 0 5 -32
2 -72z"/>
</g>
</svg>
